<svg xmlns="http://www.w3.org/2000/svg" xmlns:xlink="http://www.w3.org/1999/xlink" width="50" zoomAndPan="magnify" viewBox="0 0 37.5 37.499999" height="50" preserveAspectRatio="xMidYMid meet" version="1.0"><path fill="#ffffff" d="M 14.375 13.125 C 13.6875 13.125 13.125 13.6875 13.125 14.375 L 13.125 23.125 C 13.125 23.8125 13.6875 24.375 14.375 24.375 L 23.125 24.375 C 23.8125 24.375 24.375 23.8125 24.375 23.125 L 24.375 14.375 C 24.375 13.6875 23.8125 13.125 23.125 13.125 Z M 14.375 14.375 L 23.125 14.375 L 23.125 23.125 L 20.257812 23.125 L 20.257812 20.648438 L 21.738281 20.648438 L 21.957031 18.945312 L 20.269531 18.945312 L 20.269531 17.859375 C 20.269531 17.367188 20.40625 17.035156 21.113281 17.035156 L 22.003906 17.035156 L 22.003906 15.515625 C 21.570312 15.46875 21.132812 15.449219 20.695312 15.449219 C 19.402344 15.449219 18.511719 16.242188 18.511719 17.691406 L 18.511719 18.945312 L 17.046875 18.945312 L 17.046875 20.648438 L 18.511719 20.648438 L 18.511719 23.125 L 14.375 23.125 Z M 14.375 14.375 " fill-opacity="1" fill-rule="nonzero"/></svg>