<svg xmlns="http://www.w3.org/2000/svg" xmlns:xlink="http://www.w3.org/1999/xlink" width="50" zoomAndPan="magnify" viewBox="0 0 37.5 37.499999" height="50" preserveAspectRatio="xMidYMid meet" version="1.0"><path fill="#ffffff" d="M 16.25 13.125 C 14.527344 13.125 13.125 14.527344 13.125 16.25 L 13.125 21.25 C 13.125 22.972656 14.527344 24.375 16.25 24.375 L 21.25 24.375 C 22.972656 24.375 24.375 22.972656 24.375 21.25 L 24.375 16.25 C 24.375 14.527344 22.972656 13.125 21.25 13.125 Z M 16.25 14.375 L 21.25 14.375 C 22.285156 14.375 23.125 15.214844 23.125 16.25 L 23.125 21.25 C 23.125 22.285156 22.285156 23.125 21.25 23.125 L 16.25 23.125 C 15.214844 23.125 14.375 22.285156 14.375 21.25 L 14.375 16.25 C 14.375 15.214844 15.214844 14.375 16.25 14.375 Z M 21.875 15 C 21.703125 15 21.554688 15.0625 21.433594 15.183594 C 21.3125 15.304688 21.25 15.453125 21.25 15.625 C 21.25 15.796875 21.3125 15.945312 21.433594 16.066406 C 21.554688 16.1875 21.703125 16.25 21.875 16.25 C 22.046875 16.25 22.195312 16.1875 22.316406 16.066406 C 22.4375 15.945312 22.5 15.796875 22.5 15.625 C 22.5 15.453125 22.4375 15.304688 22.316406 15.183594 C 22.195312 15.0625 22.046875 15 21.875 15 Z M 18.75 15.625 C 17.027344 15.625 15.625 17.027344 15.625 18.75 C 15.625 20.472656 17.027344 21.875 18.75 21.875 C 20.472656 21.875 21.875 20.472656 21.875 18.75 C 21.875 17.027344 20.472656 15.625 18.75 15.625 Z M 18.75 16.875 C 19.785156 16.875 20.625 17.714844 20.625 18.75 C 20.625 19.785156 19.785156 20.625 18.75 20.625 C 17.714844 20.625 16.875 19.785156 16.875 18.75 C 16.875 17.714844 17.714844 16.875 18.75 16.875 Z M 18.75 16.875 " fill-opacity="1" fill-rule="nonzero"/></svg>