<svg xmlns="http://www.w3.org/2000/svg" xmlns:xlink="http://www.w3.org/1999/xlink" width="50" zoomAndPan="magnify" viewBox="0 0 37.5 37.499999" height="50" preserveAspectRatio="xMidYMid meet" version="1.0"><path fill="#ffffff" d="M 13.949219 12.449219 C 13.125 12.449219 12.449219 13.125 12.449219 13.949219 L 12.449219 23.550781 C 12.449219 24.375 13.125 25.050781 13.949219 25.050781 L 23.550781 25.050781 C 24.375 25.050781 25.050781 24.375 25.050781 23.550781 L 25.050781 13.949219 C 25.050781 13.125 24.375 12.449219 23.550781 12.449219 Z M 13.949219 13.050781 L 23.550781 13.050781 C 24.050781 13.050781 24.449219 13.449219 24.449219 13.949219 L 24.449219 23.550781 C 24.449219 24.050781 24.050781 24.449219 23.550781 24.449219 L 13.949219 24.449219 C 13.449219 24.449219 13.050781 24.050781 13.050781 23.550781 L 13.050781 13.949219 C 13.050781 13.449219 13.449219 13.050781 13.949219 13.050781 Z M 15.449219 14.554688 C 15.121094 14.554688 14.824219 14.652344 14.605469 14.835938 C 14.386719 15.019531 14.253906 15.296875 14.253906 15.589844 C 14.253906 16.148438 14.738281 16.585938 15.355469 16.628906 C 15.359375 16.628906 15.359375 16.628906 15.359375 16.628906 C 15.386719 16.640625 15.417969 16.644531 15.449219 16.644531 C 16.132812 16.644531 16.644531 16.167969 16.644531 15.589844 C 16.644531 15.585938 16.644531 15.578125 16.644531 15.574219 C 16.617188 15.003906 16.105469 14.554688 15.449219 14.554688 Z M 15.449219 15.144531 C 15.867188 15.144531 16.03125 15.332031 16.050781 15.597656 C 16.046875 15.855469 15.886719 16.054688 15.449219 16.054688 C 15.035156 16.054688 14.847656 15.839844 14.847656 15.589844 C 14.847656 15.464844 14.890625 15.371094 14.988281 15.289062 C 15.085938 15.207031 15.238281 15.144531 15.449219 15.144531 Z M 14.550781 16.949219 C 14.46875 16.949219 14.394531 16.980469 14.335938 17.039062 C 14.28125 17.097656 14.25 17.167969 14.25 17.25 L 14.25 22.949219 C 14.25 23.03125 14.28125 23.105469 14.335938 23.164062 C 14.394531 23.21875 14.46875 23.25 14.550781 23.25 L 16.351562 23.25 C 16.433594 23.25 16.503906 23.21875 16.5625 23.164062 C 16.621094 23.105469 16.648438 23.03125 16.648438 22.949219 L 16.648438 17.25 C 16.648438 17.167969 16.621094 17.097656 16.5625 17.039062 C 16.503906 16.980469 16.433594 16.949219 16.351562 16.949219 Z M 17.25 16.949219 C 17.167969 16.949219 17.097656 16.980469 17.039062 17.039062 C 16.980469 17.097656 16.949219 17.167969 16.949219 17.25 L 16.949219 22.949219 C 16.949219 23.03125 16.980469 23.105469 17.039062 23.164062 C 17.097656 23.21875 17.167969 23.25 17.25 23.25 L 19.050781 23.25 C 19.132812 23.25 19.203125 23.21875 19.261719 23.164062 C 19.320312 23.105469 19.351562 23.03125 19.351562 22.949219 L 19.351562 19.949219 C 19.351562 19.699219 19.417969 19.453125 19.539062 19.292969 C 19.65625 19.128906 19.808594 19.03125 20.09375 19.035156 C 20.390625 19.042969 20.546875 19.144531 20.664062 19.300781 C 20.785156 19.460938 20.851562 19.699219 20.851562 19.949219 L 20.851562 22.949219 C 20.851562 23.03125 20.878906 23.105469 20.9375 23.164062 C 20.996094 23.21875 21.066406 23.25 21.148438 23.25 L 22.949219 23.25 C 23.03125 23.25 23.105469 23.21875 23.164062 23.164062 C 23.21875 23.105469 23.25 23.03125 23.25 22.949219 L 23.25 19.726562 C 23.25 18.839844 22.988281 18.136719 22.535156 17.660156 C 22.085938 17.183594 21.457031 16.949219 20.792969 16.949219 C 20.164062 16.949219 19.683594 17.160156 19.351562 17.378906 L 19.351562 17.25 C 19.351562 17.167969 19.320312 17.097656 19.261719 17.039062 C 19.203125 16.980469 19.132812 16.949219 19.050781 16.949219 Z M 14.851562 17.550781 L 16.050781 17.550781 L 16.050781 22.648438 L 14.851562 22.648438 Z M 17.550781 17.550781 L 18.75 17.550781 L 18.75 18.019531 C 18.75 18.164062 18.816406 18.257812 18.953125 18.300781 C 19.089844 18.347656 19.203125 18.3125 19.289062 18.199219 C 19.289062 18.199219 19.761719 17.550781 20.792969 17.550781 C 21.320312 17.550781 21.769531 17.726562 22.101562 18.074219 C 22.429688 18.421875 22.648438 18.957031 22.648438 19.726562 L 22.648438 22.648438 L 21.449219 22.648438 L 21.449219 19.949219 C 21.449219 19.601562 21.367188 19.238281 21.148438 18.945312 C 20.929688 18.648438 20.558594 18.445312 20.105469 18.4375 C 19.648438 18.429688 19.273438 18.636719 19.054688 18.9375 C 18.835938 19.234375 18.75 19.597656 18.75 19.949219 L 18.75 22.648438 L 17.550781 22.648438 Z M 17.550781 17.550781 " fill-opacity="1" fill-rule="nonzero"/></svg>