<svg xmlns="http://www.w3.org/2000/svg" xmlns:xlink="http://www.w3.org/1999/xlink" width="50" zoomAndPan="magnify" viewBox="0 0 37.5 37.499999" height="50" preserveAspectRatio="xMidYMid meet" version="1.0"><path fill="#ffffff" d="M 21.25 13.125 C 19.550781 13.125 18.175781 14.496094 18.136719 16.183594 C 16.636719 16.003906 15.660156 15.445312 15.0625 14.890625 C 14.394531 14.277344 14.1875 13.734375 14.1875 13.734375 C 14.117188 13.5625 13.992188 13.464844 13.8125 13.441406 C 13.632812 13.417969 13.484375 13.476562 13.375 13.625 C 13.375 13.625 12.8125 14.375 12.8125 15.46875 C 12.8125 16.09375 13.011719 16.558594 13.246094 16.949219 C 13.238281 16.945312 13.179688 16.925781 13.179688 16.925781 C 13.015625 16.84375 12.855469 16.851562 12.703125 16.957031 C 12.550781 17.058594 12.484375 17.203125 12.5 17.386719 C 12.5 17.386719 12.683594 18.707031 13.921875 19.667969 L 13.792969 19.703125 C 13.722656 19.71875 13.65625 19.753906 13.601562 19.800781 C 13.546875 19.847656 13.503906 19.90625 13.476562 19.972656 C 13.445312 20.039062 13.433594 20.109375 13.4375 20.183594 C 13.441406 20.257812 13.460938 20.324219 13.5 20.390625 C 13.5 20.390625 13.710938 20.746094 14.148438 21.117188 C 14.410156 21.339844 14.792969 21.570312 15.246094 21.78125 C 14.691406 21.984375 13.863281 22.1875 12.65625 22.1875 C 12.453125 22.1875 12.3125 22.277344 12.230469 22.460938 C 12.144531 22.644531 12.171875 22.8125 12.304688 22.964844 C 12.304688 22.964844 12.660156 23.359375 13.371094 23.703125 C 14.078125 24.046875 15.167969 24.375 16.71875 24.375 C 19.445312 24.375 21.402344 23.066406 22.625 21.410156 C 23.84375 19.753906 24.375 17.769531 24.375 16.25 C 24.375 16.152344 24.367188 16.058594 24.359375 15.964844 C 25.019531 15.328125 25.269531 14.851562 25.28125 14.828125 C 25.339844 14.707031 25.316406 14.566406 25.222656 14.46875 C 25.132812 14.375 24.992188 14.347656 24.871094 14.402344 L 24.820312 14.425781 C 24.773438 14.445312 24.730469 14.46875 24.6875 14.488281 C 24.816406 14.285156 24.914062 14.066406 24.984375 13.84375 C 25.023438 13.71875 24.980469 13.582031 24.878906 13.503906 C 24.777344 13.421875 24.636719 13.414062 24.523438 13.484375 C 24.144531 13.714844 23.777344 13.878906 23.394531 13.984375 C 22.835938 13.453125 22.082031 13.125 21.25 13.125 Z M 21.25 14.0625 C 22.464844 14.0625 23.4375 15.035156 23.4375 16.25 C 23.4375 17.542969 22.953125 19.386719 21.867188 20.855469 C 20.785156 22.324219 19.148438 23.4375 16.71875 23.4375 C 15.542969 23.4375 14.757812 23.226562 14.171875 22.996094 C 14.789062 22.898438 15.316406 22.773438 15.695312 22.625 C 16.355469 22.371094 16.710938 22.074219 16.710938 22.074219 C 16.855469 21.949219 16.90625 21.796875 16.863281 21.609375 C 16.820312 21.425781 16.703125 21.308594 16.519531 21.265625 C 15.667969 21.050781 15.125 20.707031 14.78125 20.421875 L 15.269531 20.296875 C 15.492188 20.242188 15.609375 20.101562 15.625 19.871094 C 15.636719 19.644531 15.539062 19.488281 15.324219 19.40625 C 14.3125 19.015625 13.882812 18.464844 13.667969 18.003906 C 13.933594 18.058594 14.179688 18.125 14.53125 18.125 C 14.777344 18.125 14.929688 18.003906 14.988281 17.765625 C 15.042969 17.523438 14.960938 17.347656 14.742188 17.238281 C 14.742188 17.238281 13.75 16.78125 13.75 15.46875 C 13.75 15.234375 13.816406 15.082031 13.863281 14.90625 C 14.027344 15.125 14.160156 15.335938 14.425781 15.582031 C 15.230469 16.324219 16.558594 17.078125 18.570312 17.1875 C 18.703125 17.195312 18.820312 17.152344 18.917969 17.058594 C 19.015625 16.964844 19.0625 16.851562 19.0625 16.71875 L 19.0625 16.25 C 19.0625 15.035156 20.035156 14.0625 21.25 14.0625 Z M 21.25 14.0625 " fill-opacity="1" fill-rule="nonzero"/></svg>